<?xml version="1.0" encoding="UTF-8"?>
<svg xmlns="http://www.w3.org/2000/svg" version="1.1" viewBox="0 0 234.4 39.2">
  <defs>
    <style>
      .cls-1 {
        fill: #c33b9a;
      }

      .cls-2 {
        fill: #fd8002;
      }

      .cls-3 {
        fill: #fff;
      }

      .cls-4 {
        fill: #921e8e;
      }
    </style>
  </defs>
  <!-- Generator: Adobe Illustrator 28.6.0, SVG Export Plug-In . SVG Version: 1.2.0 Build 709)  -->
  <g>
    <g id="Layer_1">
      <g>
        <path class="cls-3" d="M62.6,19.1c-.2-2.8-2.4-5.3-5.1-6-.8-.2-1.6-.2-2.3-.3-.5,0-.9,0-1.3-.1-2-.3-3.8-2-4.3-4,0-.4-.1-.8-.2-1.2,0-.7-.2-1.3-.4-2-.9-2.7-3.6-4.7-6.5-4.7s-.6,0-.8,0c-3.1.4-5.7,3.2-5.9,6.4-.1,2.8,1.7,5.5,4.2,6.5-1.3.8-2.3,1.9-2.8,3.2-.8-1.6-2.2-2.8-3.8-3.4-.6-.2-1.1-.3-1.6-.4h-.6c-.4-.2-.9-.2-1.2-.3-2-.5-3.6-2.3-3.9-4.3,0-.4,0-.8-.1-1.3,0-.7,0-1.4-.3-2.2-.7-2.9-3.5-5.1-6.5-5.1-2.9,0-5.7,2.1-6.5,4.9-.2.8-.3,1.5-.3,2.3,0,.5,0,.9-.1,1.3-.4,2-2.1,3.8-4.1,4.2-.4,0-.8.1-1.2.2-.7,0-1.4.2-2.1.4C1.8,14.2-.3,17.4,0,20.5c.4,3.1,3.1,5.8,6.3,6,.1,0,.3,0,.4,0,2.7,0,5.2-1.7,6.3-4.2.8,1.6,2.1,2.9,3.7,3.4.6.2,1.2.3,1.6.4h.6c.4.2.9.2,1.3.3,2,.5,3.6,2.3,3.9,4.3,0,.4,0,.8.1,1.2,0,.7,0,1.4.3,2.2.5,1.8,1.7,3.5,3.4,4.3.9.5,2,.7,3,.7,2.7,0,5.2-1.6,6.3-3.9.4.6.8,1.2,1.3,1.7,1.2,1.1,2.8,1.7,4.4,1.7,2.9,0,5.5-1.8,6.4-4.4.2-.6.3-1.3.4-1.8v-.5c.1-.5.2-.9.3-1.3.4-1.8,1.9-3.4,3.8-3.9.5-.1,1.1-.2,1.7-.3,1-.1,2-.2,3-.7,2.6-1.1,4.3-3.9,4.1-6.7Z"/>
        <g>
          <path class="cls-3" d="M70.3,5.1h12.7c2.1,0,4.9,0,7.2,1.5,2.3,1.5,3.9,4,3.9,7.8s-3.1,7.2-4.2,7.8c-2.1,1.2-5.5,1.2-6.9,1.2h-5v10.4h-7.7V5.1ZM77.9,18h3.4c1.9,0,4.9,0,4.9-3.9s-2.7-3.7-4.9-3.7h-3.4v7.6Z"/>
          <path class="cls-3" d="M103.1,5.1h9.3l10.9,28.7h-8.6l-1.9-5.8h-11l-1.9,5.8h-7.6l10.9-28.7ZM111,22.7l-3.6-12h-.1l-3.8,12h7.5Z"/>
          <path class="cls-3" d="M125.5,5.1h7.8v23h12.4v5.6h-20.1V5.1Z"/>
          <path class="cls-3" d="M148.1,5.1h12.7c2.1,0,4.9,0,7.2,1.5,2.3,1.5,3.9,4,3.9,7.8s-3.1,7.2-4.1,7.8c-2.1,1.2-5.5,1.2-7,1.2h-5v10.4h-7.7V5.1ZM155.7,18h3.4c1.9,0,4.9,0,4.9-3.9s-2.7-3.7-4.9-3.7h-3.4v7.6Z"/>
          <path class="cls-3" d="M180.9,5.1h9.3l10.9,28.7h-8.6l-1.9-5.8h-11l-1.9,5.8h-7.6l10.9-28.7ZM188.8,22.7l-3.5-12h-.1l-3.8,12h7.5Z"/>
          <path class="cls-3" d="M206,5.1l6,12,6.2-12h7.9l-10.8,18.5v10.1h-7.7v-10.5l-10.5-18.2h8.9Z"/>
          <path class="cls-3" d="M234.4,9.2c0,2.2-1.7,4-3.9,4s-3.9-1.8-3.9-4,1.8-4.1,3.9-4.1,3.9,1.8,3.9,4.1ZM227.3,9.2c0,1.8,1.4,3.3,3.2,3.3s3.2-1.5,3.2-3.3-1.5-3.4-3.2-3.4-3.2,1.5-3.2,3.4ZM228.7,6.9h2c.7,0,1.6,0,1.6,1.2s-.2,1-1,1.1h0c.8,0,.9.5.9.9.1,1,.1,1,.2,1.3h-1.3c0-.3-.1-.6-.1-1,0-.5,0-.7-.6-.7h-.5v1.8h-1.2v-4.5ZM229.9,8.8h.5c.4,0,.8,0,.8-.6s-.5-.6-.8-.6h-.5v1.1Z"/>
        </g>
        <g>
          <path class="cls-4" d="M31.6,14.7c-.7-.1-1.3-.2-2-.4-2.6-.7-4.6-2.9-5.1-5.6-.2-1.1,0-2.2-.4-3.3-.5-2.2-2.7-3.9-4.9-3.9s-4.4,1.6-5,3.8c-.3,1.1-.2,2.3-.5,3.5-.5,2.6-2.7,4.9-5.3,5.5-1.1.2-2.2.2-3.3.5-2.3.7-3.9,3.2-3.6,5.5s2.4,4.4,4.8,4.5c2.4.2,4.8-1.6,5.3-3.9.3-1.1.2-2.2.4-3.2.5-3.2,3.6-5.8,6.9-5.8s6.3,2.7,6.8,5.9c.2,1.1,0,2.2.3,3.3.3,1.4,1.3,2.6,2.6,3.3,3.4,1.7,7.6-.9,7.6-4.7,0-2.1-1.5-4.1-3.4-4.8-.4-.1-.9-.2-1.3-.3Z"/>
          <path class="cls-1" d="M18.6,24.6c.7.1,1.4.2,2,.4,2.6.7,4.6,3,5,5.6.2,1.1,0,2.2.4,3.3.4,1.4,1.3,2.6,2.6,3.3,2.6,1.4,6.2,0,7.2-2.8.4-1.1.3-2.3.4-3.5.4-2.8,2.7-5.2,5.4-5.8,1.1-.2,2.2-.2,3.2-.5,2.3-.7,3.9-3.1,3.6-5.5-.3-2.4-2.4-4.4-4.8-4.6s-4.8,1.6-5.3,3.9c-.3,1.1-.2,2.2-.4,3.3-.5,3.2-3.6,5.8-6.9,5.8-3.3,0-6.3-2.7-6.8-5.9-.2-1.1,0-2.2-.3-3.2-.5-2.3-2.8-4.1-5.2-4s-4.5,2-4.9,4.4,1.1,4.8,3.3,5.6c.4.2.9.3,1.3.3Z"/>
          <path class="cls-2" d="M48.2,32.2c0-.7.2-1.3.3-2,.6-2.4,2.5-4.4,4.9-5,1.5-.4,3.1-.3,4.5-.9,2-.8,3.3-3,3.1-5.1s-1.8-4-3.9-4.6c-1.1-.3-2.4-.2-3.5-.4-2.6-.4-4.9-2.6-5.5-5.2-.2-1-.2-2.1-.6-3.1-.7-2.3-3.2-3.9-5.6-3.5-2.4.3-4.4,2.5-4.5,4.9-.1,2.4,1.7,4.7,4,5.3,1.1.2,2.2.1,3.3.3,3.3.5,5.9,3.5,6,6.8,0,3.3-2.6,6.4-5.8,6.9-1,.2-2.1.1-3.1.4-1.8.4-3.3,2-3.8,3.8s.2,3.9,1.6,5.1c2.6,2.3,7.1,1.3,8.3-2.1.2-.5.3-1,.3-1.5Z"/>
        </g>
      </g>
    </g>
  </g>
</svg>